<?xml version="1.0" encoding="iso-8859-1"?>
<!-- Generator: Adobe Illustrator 19.0.0, SVG Export Plug-In . SVG Version: 6.00 Build 0)  -->
<svg version="1.1" id="Capa_1" xmlns="http://www.w3.org/2000/svg" xmlns:xlink="http://www.w3.org/1999/xlink" x="0px" y="0px"
	 viewBox="0 0 512 512" style="enable-background:new 0 0 512 512;" xml:space="preserve">
<path style="fill:#18A7FC;" d="M406,512H106c-19.797,0-19.797-30,0-30s19.797-30,0-30c-8.401,0-15-6.601-15-15
	c0-61.8,34.797-117.9,88.198-145.8c6.599-3.602,13.202-6.601,20.402-9.302h0.3c5.402-2.098,11.7-0.599,15.601,3.602L256,325.699
	l40.499-40.199c3.9-4.2,10.199-5.7,15.601-3.602h0.3c7.2,2.701,13.802,5.7,20.402,9.302C386.203,319.1,421,375.2,421,437
	c0,8.399-6.599,15-15,15c-19.797,0-19.797,30,0,30S425.797,512,406,512z"/>
<path style="fill:#1689FC;" d="M406,512H256V325.699l40.499-40.199c3.9-4.2,10.199-5.7,15.601-3.602h0.3
	c7.2,2.701,13.802,5.7,20.402,9.302C386.203,319.1,421,375.2,421,437c0,8.399-6.599,15-15,15c-19.797,0-19.797,30,0,30
	S425.797,512,406,512z"/>
<path style="fill:#C5C9F7;" d="M346,422h-30c-19.773,0-19.854-30,0-30h30C365.773,392,365.854,422,346,422z"/>
<path style="fill:#FFC27A;" d="M312.4,281.899h-0.3C294.701,275.3,275.2,272,256,272s-38.701,3.3-56.1,9.899h-0.3
	c-2.098,0.901-4.2,1.501-6.302,2.401L256,347l62.703-62.701C316.601,283.4,314.499,282.8,312.4,281.899z"/>
<path style="fill:#FFAD4D;" d="M312.4,281.899c2.098,0.901,4.2,1.501,6.302,2.401L256,347v-75c19.2,0,38.701,3.3,56.1,9.899H312.4z"
	/>
<path style="fill:#FFDAAA;" d="M346,180h-30c-24.902,0-45-20.101-45-45c0-9.901-7.5-15-15-15s-15,5.099-15,15
	c0,24.899-20.098,45-45,45h-30c-7.2,0-13.198,5.099-14.7,11.999c-0.3,0.901-0.3,2.1-0.3,3.001c0,5.099,0.3,10.199,1.201,15
	c7.2,50.7,50.999,92,103.799,92s96.599-41.3,103.799-92c0.901-4.801,1.201-9.901,1.201-15C361,186.899,354.401,180,346,180z"/>
<path style="fill:#FEDB41;" d="M361,195c0,5.099-0.3,10.199-1.201,15H316c-24.602,0-46.501-12.001-60-30.601
	C242.201,197.999,220.602,210,196,210h-43.799c-0.901-4.801-1.201-9.901-1.201-15c0-0.901,0-2.1,0.3-3.001
	C152.501,135.601,198.999,90,256,90s103.499,45.601,104.7,101.999C361,192.9,361,194.099,361,195z"/>
<path style="fill:#FFC27A;" d="M361,195c0,5.099-0.3,10.199-1.201,15c-7.2,50.7-50.999,92-103.799,92V120c7.5,0,15,5.099,15,15
	c0,24.899,20.098,45,45,45h30C354.401,180,361,186.899,361,195z"/>
<path style="fill:#FFCC33;" d="M361,195c0,5.099-0.3,10.199-1.201,15H316c-24.602,0-46.501-12.001-60-30.601V90
	c57.001,0,103.499,45.601,104.7,101.999C361,192.9,361,194.099,361,195z"/>
<path style="fill:#FFDAAA;" d="M106,512H76c-59.44,0-59.487-90,0-90h30C165.44,422,165.487,512,106,512z"/>
<path style="fill:#FFC27A;" d="M436,512h-30c-59.44,0-59.487-90,0-90h30C495.44,422,495.487,512,436,512z"/>
<g>
	<path style="fill:#063E8B;" d="M391,135c0,19.799-30,19.799-30,0c0-57.9-47.102-105-105-105S151,77.1,151,135
		c0,19.799-30,19.799-30,0C121,60.601,181.601,0,256,0S391,60.601,391,135z"/>
	<path style="fill:#063E8B;" d="M391,135c0,19.799-30,19.799-30,0c0-57.9-47.102-105-105-105V0C330.399,0,391,60.601,391,135z"/>
	<path style="fill:#063E8B;" d="M331,195v-30c0-59.44,90-59.487,90,0v30C421,254.44,331,254.487,331,195z"/>
</g>
<path style="fill:#0A4EAF;" d="M91,195v-30c0-59.44,90-59.487,90,0v30C181,254.44,91,254.487,91,195z"/>
<g>
</g>
<g>
</g>
<g>
</g>
<g>
</g>
<g>
</g>
<g>
</g>
<g>
</g>
<g>
</g>
<g>
</g>
<g>
</g>
<g>
</g>
<g>
</g>
<g>
</g>
<g>
</g>
<g>
</g>
</svg>
