<svg id="Layer_1" data-name="Layer 1" xmlns="http://www.w3.org/2000/svg" viewBox="0 0 201.819 229.262"><defs><style>.cls-1,.cls-2{fill:none;stroke:#231f20;}.cls-1,.cls-2,.cls-3{stroke-miterlimit:10;}.cls-2{stroke-width:2px;}.cls-3{fill:#a9403a;stroke:#a9403a;stroke-width:0.75px;}.cls-4{font-size:12px;fill:#231f20;font-family:AmericanTypewriter-Bold, American Typewriter;font-weight:700;}.cls-5{letter-spacing:-0.013em;}.cls-6{letter-spacing:-0.032em;}.cls-7{letter-spacing:-0.015em;}.cls-8{letter-spacing:-0.063em;}</style></defs><title>Organ_donation</title><path class="cls-1" d="M121.8,119.293s4.089,5.566,4.316,11.585v11.813s-.227,5.452-4.316,5.679" transform="translate(-16.232 -33.408)"/><path class="cls-1" d="M119.533,148.37a2.451,2.451,0,0,1-1.931-.455" transform="translate(-16.232 -33.408)"/><path class="cls-1" d="M114.194,124.688s3.181-.17,4.884,1.761" transform="translate(-16.232 -33.408)"/><path class="cls-1" d="M111.241,130.538s1.082-.265,1.393,6.4" transform="translate(-16.232 -33.408)"/><path class="cls-2" d="M103.224,122.984s-4.514-6.492-1.107-12.474c0,0-2.5-3.181-2.8-4.7l1.955-1.212s2,3.256,1.954,3.408l.047-.152,1.042-.757-.606-4.316,2.347-.3s.379,3.4.985,3.669h.908l.53-3.972,2.424.53-.379,3.442s2.347.5,2.537,1.783" transform="translate(-16.232 -33.408)"/><path class="cls-2" d="M97.607,119.929s-4.425-5.406-5.182-8.814l4.77-3.1s3.4,4.751,4.046,4.571a15.539,15.539,0,0,0-.354,3.76l-.663.339s-5.679,4.259-4.77,14.737c0,0,2.158,11.954,18.4,17.86,0,0,13.175,5.679,14.084-6.019,0,0,2.385-16.583-3.408-23.966,0,0-2.953-4.657-5.906-6.133l1.7-1.7a3.525,3.525,0,0,0-1.023-4.657s-3.634-2.044-6.246,1.136c0,0-2.158.8-5.679,7.724,0,0-1.591,5.792-5.112,8.064" transform="translate(-16.232 -33.408)"/><path class="cls-1" d="M94.464,111.873s2.883,4.619,3.488,4.921" transform="translate(-16.232 -33.408)"/><path class="cls-1" d="M103.253,111.343a42.408,42.408,0,0,0-.379,5.451" transform="translate(-16.232 -33.408)"/><line class="cls-1" x1="86.818" y1="84.598" x2="87.323" y2="85.886"/><path class="cls-2" d="M114.422,136.217s.34-5.743-2.045-7.813c0,0-2.839-6.953,6.247-15.244" transform="translate(-16.232 -33.408)"/><path class="cls-1" d="M120.782,125.2s-.7-2.4-8.148-3.511" transform="translate(-16.232 -33.408)"/><path class="cls-3" d="M115.82,47.692V70.833s16.346-22.216,37.44-20.364a55.572,55.572,0,0,1,33.578,15.273s27.683,25.184.444,65.988a9.767,9.767,0,0,1-.973,1.229l-52.852,56.822V169.417s10.727-4.629,24.09-20.365l11.392-13.416a6.629,6.629,0,0,0,.949-7.238,4.237,4.237,0,0,0-4.309-2.421,7.784,7.784,0,0,0-5.691,3.56L150.1,143.652s-6.888,12.343-14.924,15.12c0,0-.861-.617,4.592-5.863,0,0,5.166-4.011,4.018-9.874-1.09-5.569-8.915,6.962-13.632,8.494a4.31,4.31,0,0,0-1.315.6l-6.737,5.09a8.508,8.508,0,0,0-3.284,6.8v68.2l79.912-85.917a22.331,22.331,0,0,0,2.675-3.5c5.889-9.559,28.2-50.784-1.32-84.915,0,0-12.963-22.216-44.819-24.067C155.269,33.807,132.909,32.573,115.82,47.692Z" transform="translate(-16.232 -33.408)"/><path class="cls-3" d="M115.82,47.692V70.833S99.474,48.617,78.38,50.469A55.572,55.572,0,0,0,44.8,65.742s-27.685,25.186-.442,65.992a9.785,9.785,0,0,0,.971,1.225l52.851,56.822V169.417s-10.727-4.629-24.089-20.365L62.7,135.636a6.63,6.63,0,0,1-.948-7.238,4.237,4.237,0,0,1,4.309-2.421,7.784,7.784,0,0,1,5.691,3.56l9.785,14.115S88.425,156,96.46,158.772c0,0,.861-.617-4.591-5.863,0,0-5.166-4.011-4.018-9.874,1.09-5.569,8.915,6.961,13.631,8.493a4.312,4.312,0,0,1,1.315.6l6.723,5.079a8.547,8.547,0,0,1,3.3,6.827v68.176L32.907,146.291a22.331,22.331,0,0,1-2.675-3.5c-5.889-9.559-28.2-50.784,1.32-84.915,0,0,12.963-22.216,44.819-24.067C76.371,33.807,98.731,32.573,115.82,47.692Z" transform="translate(-16.232 -33.408)"/><text class="cls-4" transform="translate(8.321 224.067)">OR<tspan class="cls-5" x="17.484" y="0">G</tspan><tspan x="25.848" y="0">AN DO</tspan><tspan class="cls-6" x="66.203" y="0">N</tspan><tspan class="cls-7" x="76.308" y="0">A</tspan><tspan x="85.739" y="0">TION CAM</tspan><tspan class="cls-8" x="151.654" y="0">P</tspan><tspan x="159.202" y="0">AIGN</tspan></text></svg>