<svg xmlns="http://www.w3.org/2000/svg" xmlns:xlink="http://www.w3.org/1999/xlink" viewBox="0 0 170.08 49.573"><defs><style>.cls-1{fill:url(#linear-gradient);}.cls-2{fill:url(#linear-gradient-2);}.cls-3,.cls-5{font-size:36px;font-family:AmericanTypewriter, American Typewriter;}.cls-3{fill:#285681;}.cls-4,.cls-6{font-size:24px;}.cls-4{letter-spacing:0em;}.cls-5{fill:#21409a;}.cls-7{fill:#fff;}</style><linearGradient id="linear-gradient" x1="23.054" y1="35.045" x2="67.529" y2="40.838" gradientUnits="userSpaceOnUse"><stop offset="0.029" stop-color="#285681"/><stop offset="0.134" stop-color="#3b6476"/><stop offset="0.349" stop-color="#6c8758"/><stop offset="0.65" stop-color="#bac029"/><stop offset="0.895" stop-color="#fff200"/></linearGradient><linearGradient id="linear-gradient-2" x1="70.835" y1="35.104" x2="157.713" y2="49.965" gradientUnits="userSpaceOnUse"><stop offset="0.124" stop-color="#00aeef"/><stop offset="0.179" stop-color="#13b3dd"/><stop offset="0.291" stop-color="#44c0af"/><stop offset="0.449" stop-color="#94d565"/><stop offset="0.646" stop-color="#fff200"/></linearGradient></defs><title>portfolio_logo</title><g id="symbol"><path class="cls-1" d="M24,28.017V47.791a7.158,7.158,0,0,0,3.847,4.694L41.7,60.641s3.693,2.308,6.925,0l16.619-9.849a7,7,0,0,0,1.539-4.463c.154-3.077,0-17.543,0-17.543s.462-2.923-4.155-5.539L48.776,15.4s-3.848-2.769-7.541,0-13.7,8-13.7,8S24,25.093,24,28.017Z" transform="translate(-24 -14.167)"/><path class="cls-2" d="M73.212,45.817V31.407q0-2.658-1.821-2.659a6.276,6.276,0,0,0-.751.058,8.933,8.933,0,0,1-.964.086q-1.143,0-1.143-1.188,0-1.26,1.581-1.26a4.351,4.351,0,0,1,.539.036l1.762.216a17.819,17.819,0,0,0,2.155.108q.9,0,2.157-.108,2.947-.252,4.457-.252a18.826,18.826,0,0,1,3.953.36,6.168,6.168,0,0,1,3.72,2.232,6.588,6.588,0,0,1,1.348,4.176A6.167,6.167,0,0,1,87.883,38.4q-2.322,1.8-6.714,1.8H77.137q-.576,0-.738.2a1.642,1.642,0,0,0-.162.914v.717a30.824,30.824,0,0,0,.27,5.52q.27.969,1.566.968a2.622,2.622,0,0,0,.756-.108c.528-.048.851-.072.972-.072a1,1,0,0,1,1.116,1.152q0,1.3-1.584,1.3l-.5-.072-1.8-.252a17.451,17.451,0,0,0-2.268-.108,15.745,15.745,0,0,0-2.052.108l-2.088.288a.976.976,0,0,0-.216.036h-.252q-1.62,0-1.62-1.26a1.183,1.183,0,0,1,.324-.846,1.049,1.049,0,0,1,.792-.342,5.436,5.436,0,0,1,.972.108,2.941,2.941,0,0,0,.756.072Q73.213,48.512,73.212,45.817ZM76.489,29.5a4.462,4.462,0,0,0-.252,1.98v5.328q0,.972,1.368,1.116h2.088a19.063,19.063,0,0,0,4.248-.4,3.868,3.868,0,0,0,3.2-4.212q0-4.572-5.832-4.572Q76.993,28.748,76.489,29.5Z" transform="translate(-24 -14.167)"/><path class="cls-2" d="M95.34,39.285v.659a4.186,4.186,0,0,1,6.06-.8,3.142,3.142,0,0,1,1.044,2.436,2.668,2.668,0,0,1-.527,1.716,1.7,1.7,0,0,1-1.392.66,1.373,1.373,0,0,1-.937-.336A1.046,1.046,0,0,1,99.2,42.8a.961.961,0,0,1,.288-.684.9.9,0,0,1,.672-.3,1.463,1.463,0,0,1,.312.072,1.2,1.2,0,0,0,.144-.528,1.444,1.444,0,0,0-.612-1.176,2.394,2.394,0,0,0-1.524-.48,2.426,2.426,0,0,0-2.5,1.68,9.512,9.512,0,0,0-.383,3.12v1.584q0,1.608.024,1.8.118,1.368.743,1.368a2.78,2.78,0,0,0,.649-.082,2.042,2.042,0,0,1,.455-.062.674.674,0,0,1,.768.757q0,.827-.98.827h-.1a10.468,10.468,0,0,1-1.088-.084,10.482,10.482,0,0,0-1.089-.084q-.956,0-1.507.048l-1.339.12q-.981,0-.981-.84,0-.744.921-.744a2.026,2.026,0,0,1,.363.024l.363.072a2.074,2.074,0,0,0,.339.048q.606,0,.654-1.1V46.928l-.071-5.448q-.074-1.416-.721-1.416a2.687,2.687,0,0,0-.528.072,2.687,2.687,0,0,1-.528.072.69.69,0,0,1-.792-.768q0-.84,1.032-.84a6.4,6.4,0,0,1,.721.06,6.335,6.335,0,0,0,.719.06,5.148,5.148,0,0,0,.624-.06,1.537,1.537,0,0,1,.456-.06Q95.34,38.6,95.34,39.285Z" transform="translate(-24 -14.167)"/><path class="cls-2" d="M113.82,50.912a2.218,2.218,0,0,1-2.423-1.7,4.316,4.316,0,0,1-3.84,1.8,4.733,4.733,0,0,1-3.109-.96,3.158,3.158,0,0,1-1.163-2.568,3.113,3.113,0,0,1,1.7-2.928,4.486,4.486,0,0,1,1.117-.468q.468-.108,1.883-.276a7.218,7.218,0,0,0,2.628-.6,1.537,1.537,0,0,0,.613-1.416,1.9,1.9,0,0,0-.684-1.548,2.92,2.92,0,0,0-1.909-.564,3.666,3.666,0,0,0-2.015.6q-.361.24-.361.5c0,.064.073.144.217.24a.937.937,0,0,1,.336.816,1.018,1.018,0,0,1-.349.792,1.26,1.26,0,0,1-.876.312,1.393,1.393,0,0,1-1.043-.432,1.454,1.454,0,0,1-.42-1.056,2.789,2.789,0,0,1,1.332-2.3,5.371,5.371,0,0,1,3.228-.96q4.367,0,4.367,4.191v4.838a9.955,9.955,0,0,0,.049,1.365q.142.837.816.838.84,0,.839-1.526V46.731q0-.764.733-.763.78,0,.78,1.152v1.488A2.129,2.129,0,0,1,113.82,50.912Zm-2.664-4.776v-1.7a3.06,3.06,0,0,1-1.111.672,11.121,11.121,0,0,1-2.091.336q-2.725.264-2.725,2.016a1.742,1.742,0,0,0,.66,1.44,2.778,2.778,0,0,0,1.787.528,3.535,3.535,0,0,0,2.533-.876A3.242,3.242,0,0,0,111.156,46.136Z" transform="translate(-24 -14.167)"/><path class="cls-2" d="M120.18,35.308q-.213,1.983-.24,4.708A4.857,4.857,0,0,1,121.5,38.6a4.351,4.351,0,0,1,2-.408,4.752,4.752,0,0,1,3.826,1.68,6.689,6.689,0,0,1,1.421,4.464,7.384,7.384,0,0,1-1.5,4.86,4.977,4.977,0,0,1-4.044,1.812,3.847,3.847,0,0,1-3.576-1.848q.1.7.1.768a.753.753,0,0,1-.84.864q-.84,0-.84-1.2v-1.68l.12-1.848V37.232a3.263,3.263,0,0,0-.18-1.2.554.554,0,0,0-.54-.312q-.072,0-.624.1a2.6,2.6,0,0,1-.456.048q-.816,0-.816-.768,0-.792.96-.792a3.98,3.98,0,0,1,.48.024l.576.072a5.251,5.251,0,0,0,.624.048,5.378,5.378,0,0,0,.744-.072,5.329,5.329,0,0,1,.72-.072q.528,0,.528.67Zm-.071,6.94a10.672,10.672,0,0,0-.169,2.16,9.273,9.273,0,0,0,.387,3.264,2.817,2.817,0,0,0,2.852,1.752,3.134,3.134,0,0,0,2.646-1.308A5.732,5.732,0,0,0,126.8,44.6a5.934,5.934,0,0,0-.93-3.54,2.981,2.981,0,0,0-2.55-1.284,3.279,3.279,0,0,0-2.054.708A3.041,3.041,0,0,0,120.109,42.248Z" transform="translate(-24 -14.167)"/><path class="cls-2" d="M134.316,35.124l-.1,4.676a6.471,6.471,0,0,1,1.757-1.26,5.265,5.265,0,0,1,5.2.828,4.048,4.048,0,0,1,1.252,3.1v4.008q0,1.416.025,1.56.094,1.2.624,1.2a1.756,1.756,0,0,0,.552-.134,1.7,1.7,0,0,1,.383-.034q.888,0,.888.816t-1.151.816a8.292,8.292,0,0,1-.912-.072,14.448,14.448,0,0,0-1.632-.12,7.236,7.236,0,0,0-.96.048q-1.01.144-1.248.144a1.057,1.057,0,0,1-.721-.252.812.812,0,0,1-.288-.636.67.67,0,0,1,.252-.528.878.878,0,0,1,.589-.216,2.031,2.031,0,0,1,.624.12,1.281,1.281,0,0,0,.407.072q.72,0,.744-1.56,0-.288.048-1.128V44.24a7.476,7.476,0,0,0-.481-3.288,2.576,2.576,0,0,0-2.458-1.248,3.09,3.09,0,0,0-2.77,1.3,5.332,5.332,0,0,0-.627,2.856v1.728a2.034,2.034,0,0,1-.1.48v.456q0,1.368.025,1.584.123,1.176.716,1.176a2.078,2.078,0,0,0,.555-.108,2.056,2.056,0,0,1,.53-.108.689.689,0,0,1,.791.766q0,.867-1.064.866-.339,0-1.015-.072a15.434,15.434,0,0,0-1.571-.1q-.41,0-1.136.072-.966.1-1.232.1-.99,0-.99-.89c0-.495.308-.742.928-.742a1.182,1.182,0,0,1,.464.067,2.881,2.881,0,0,0,.587.1q.392,0,.526-.732a22.213,22.213,0,0,0,.159-2.988v-4.3a41.522,41.522,0,0,0-.145-4.548c-.1-.632-.32-.948-.672-.948a2.652,2.652,0,0,0-.5.072,2.687,2.687,0,0,1-.528.072q-.816,0-.815-.768a.724.724,0,0,1,.288-.576,1.047,1.047,0,0,1,.7-.24q.12,0,.817.072a9.393,9.393,0,0,0,.983.048,4.135,4.135,0,0,0,.6-.06,4.082,4.082,0,0,1,.552-.06q.552,0,.552.8Z" transform="translate(-24 -14.167)"/><text class="cls-3" transform="translate(43.849 36.433)">P<tspan class="cls-4" x="22.932" y="0">rabh</tspan></text><text class="cls-5" transform="translate(122.249 36.432)">G<tspan class="cls-6" x="25.56" y="0">ill</tspan></text><text class="cls-3" transform="translate(122.249 36.432)">G<tspan class="cls-6" x="25.56" y="0">ill</tspan></text></g><g id="Layer_3" data-name="Layer 3"><polygon class="cls-7" points="8.778 24.058 17.188 20.589 17.188 18.617 4.131 24.058 17.188 29.521 17.188 27.708 8.778 24.058"/><polygon class="cls-7" points="33.555 23.803 25.264 27.547 25.329 29.518 38.2 23.65 24.969 18.62 25.029 20.433 33.555 23.803"/><path class="cls-7" d="M45.941,32.783h1.383s.476-.227.123.68-2.979,10-2.979,10a.365.365,0,0,1-.318.227c-.249.023-1.337,0-1.337,0s-.318.249,0-.725S45.941,32.783,45.941,32.783Z" transform="translate(-24 -14.167)"/></g></svg>