<svg xmlns="http://www.w3.org/2000/svg" xmlns:xlink="http://www.w3.org/1999/xlink" viewBox="0 0 42.85 47.5"><defs><style>.cls-1{fill:url(#linear-gradient);}.cls-2{fill:#fff;}</style><linearGradient id="linear-gradient" x1="23.05" y1="35.04" x2="67.53" y2="40.84" gradientUnits="userSpaceOnUse"><stop offset="0.03" stop-color="#285681"/><stop offset="0.13" stop-color="#3b6476"/><stop offset="0.35" stop-color="#6c8758"/><stop offset="0.65" stop-color="#bac029"/><stop offset="0.89" stop-color="#fff200"/></linearGradient></defs><title>portfolio_icon</title><g id="symbol"><path class="cls-1" d="M24,28V47.79a7.15,7.15,0,0,0,3.85,4.69L41.7,60.64s3.69,2.31,6.92,0l16.62-9.85a6.94,6.94,0,0,0,1.54-4.46c.15-3.08,0-17.54,0-17.54s.46-2.93-4.15-5.54L48.78,15.4s-3.85-2.77-7.54,0-13.7,8-13.7,8S24,25.09,24,28Z" transform="translate(-24 -14.17)"/></g><g id="Layer_3" data-name="Layer 3"><polygon class="cls-2" points="8.78 24.06 17.19 20.59 17.19 18.62 4.13 24.06 17.19 29.52 17.19 27.71 8.78 24.06"/><polygon class="cls-2" points="33.55 23.8 25.26 27.55 25.33 29.52 38.2 23.65 24.97 18.62 25.03 20.43 33.55 23.8"/><path class="cls-2" d="M45.94,32.78h1.38s.48-.22.13.68-3,10-3,10a.38.38,0,0,1-.32.23c-.25,0-1.34,0-1.34,0s-.31.25,0-.73S45.94,32.78,45.94,32.78Z" transform="translate(-24 -14.17)"/></g></svg>