<svg height="512" viewBox="0 0 64 64" width="512" xmlns="http://www.w3.org/2000/svg"><g id="Shopping"><path d="m53 53v-36h-30v40h34a4 4 0 0 1 -4-4z" fill="#2488ff"/><path d="m57 57a4 4 0 0 1 -4-4v-21c0 13.548-13.33 24.554-30 24.98v.02z" fill="#006df0"/><path d="m55 17h-2v36a4 4 0 0 0 8 0v-36z" fill="#ffcd00"/><path d="m35 41h-12v20h12v-4-6z" fill="#ff3051"/><path d="m5 41h12v20h-12z" fill="#ff3051"/><path d="m23 41h12 2v-6h-13-1z" fill="#d80027"/><path d="m17 35h-1-13v6h2 12z" fill="#d80027"/><path d="m17 41h6v20h-6z" fill="#ffcd00"/><path d="m20 35h-3v6h6v-6z" fill="#ddb200"/><path d="m23 35h1a4 4 0 1 0 -4-4v4z" fill="#ff3051"/><path d="m20 35v-4a4 4 0 1 0 -4 4z" fill="#ea2c4a"/><path d="m5 41h12v3h-12z" fill="#e52b49"/><path d="m23 41h12v3h-12z" fill="#e52b49"/><path d="m57 53a1 1 0 0 0 1-1v-31a1 1 0 0 0 -2 0v31a1 1 0 0 0 1 1z" fill="#f1f2f2"/><path d="m31 17v-6a7 7 0 0 1 9.731-6.445 8.969 8.969 0 0 0 -2.731 6.445v6h2v-6a6.986 6.986 0 0 1 2.5-5.354 6.986 6.986 0 0 1 2.5 5.354v6h2v-6a8.969 8.969 0 0 0 -2.731-6.445 7 7 0 0 1 9.731 6.445v6h2v-6a8.983 8.983 0 0 0 -13.5-7.782 8.983 8.983 0 0 0 -13.5 7.782v6z" fill="#d80027"/><path d="m35 50h14a1 1 0 0 1 1 1 1 1 0 0 1 -1 1h-14a0 0 0 0 1 0 0v-2a0 0 0 0 1 0 0z" fill="#f1f2f2"/></g></svg>