<svg xmlns="http://www.w3.org/2000/svg" xmlns:xlink="http://www.w3.org/1999/xlink" viewBox="0 0 162.45 47.5"><defs><style>.cls-1{fill:url(#linear-gradient);}.cls-2{fill:url(#linear-gradient-2);}.cls-3,.cls-6{font-size:36px;font-family:AmericanTypewriter;}.cls-3{fill:#285681;}.cls-4,.cls-5{font-size:24px;}.cls-4{letter-spacing:0em;}.cls-6{fill:#21409a;}.cls-7{fill:#fff;}</style><linearGradient id="linear-gradient" x1="-0.95" y1="20.88" x2="43.53" y2="26.67" gradientUnits="userSpaceOnUse"><stop offset="0.03" stop-color="#285681"/><stop offset="0.13" stop-color="#3b6476"/><stop offset="0.35" stop-color="#6c8758"/><stop offset="0.65" stop-color="#bac029"/><stop offset="0.89" stop-color="#fff200"/></linearGradient><linearGradient id="linear-gradient-2" x1="46.49" y1="19.56" x2="124.4" y2="32.89" gradientUnits="userSpaceOnUse"><stop offset="0.12" stop-color="#00aeef"/><stop offset="0.18" stop-color="#13b3dd"/><stop offset="0.29" stop-color="#44c0af"/><stop offset="0.45" stop-color="#94d565"/><stop offset="0.65" stop-color="#fff200"/></linearGradient></defs><title>prabh_logo</title><g id="symbol"><path class="cls-1" d="M0,13.85V33.62a7.18,7.18,0,0,0,3.85,4.7L17.7,46.47s3.69,2.31,6.92,0l16.62-9.85a6.94,6.94,0,0,0,1.54-4.46c.15-3.08,0-17.54,0-17.54s.46-2.92-4.15-5.54L24.78,1.23s-3.85-2.77-7.54,0-13.7,8-13.7,8S0,10.93,0,13.85Z"/><path class="cls-2" d="M46.58,12.46a36.67,36.67,0,0,1,6-.47c3.09,0,5.36.72,6.8,2a6.51,6.51,0,0,1,2.12,5.07,7.17,7.17,0,0,1-1.87,5.19C58,26,55.3,26.93,52.24,26.93a10.75,10.75,0,0,1-2.52-.22v9.72H46.58Zm3.14,11.7a10.44,10.44,0,0,0,2.59.25c3.78,0,6.08-1.84,6.08-5.18s-2.27-4.75-5.72-4.75a12.79,12.79,0,0,0-3,.25Z"/><path class="cls-2" d="M64.75,28.44c0-1.37,0-2.54-.09-3.62H66.5l.08,2.28h.09a3.49,3.49,0,0,1,3.22-2.55,2.67,2.67,0,0,1,.6.07v2a3,3,0,0,0-.72-.08,3,3,0,0,0-2.83,2.72,5.58,5.58,0,0,0-.1,1v6.19H64.75Z"/><path class="cls-2" d="M78.91,36.43,78.75,35h-.08a4.33,4.33,0,0,1-3.55,1.73,3.31,3.31,0,0,1-3.55-3.34c0-2.81,2.5-4.34,7-4.32V28.8a2.39,2.39,0,0,0-2.64-2.69,5.74,5.74,0,0,0-3,.87l-.48-1.4a7.24,7.24,0,0,1,3.82-1c3.55,0,4.41,2.43,4.41,4.75v4.35a16.71,16.71,0,0,0,.19,2.78ZM78.6,30.5c-2.3,0-4.92.36-4.92,2.62a1.87,1.87,0,0,0,2,2,2.88,2.88,0,0,0,2.81-2,2.2,2.2,0,0,0,.12-.67Z"/><path class="cls-2" d="M84,36.43c0-.79.1-2,.1-3v-14h2.09v7.3h0a4.34,4.34,0,0,1,4-2.14c2.88,0,4.92,2.4,4.89,5.93,0,4.15-2.61,6.22-5.21,6.22a4.15,4.15,0,0,1-3.89-2.19h-.07l-.09,1.92Zm2.19-4.65a3.76,3.76,0,0,0,.09.76A3.26,3.26,0,0,0,89.4,35c2.21,0,3.53-1.8,3.53-4.47,0-2.33-1.2-4.32-3.46-4.32a3.37,3.37,0,0,0-3.21,2.59,4.06,4.06,0,0,0-.12.87Z"/><path class="cls-2" d="M97.7,19.39h2.12v7.25h0a4,4,0,0,1,1.52-1.49,4.31,4.31,0,0,1,2.16-.6c1.56,0,4,1,4,5v6.91h-2.11V29.76c0-1.87-.7-3.46-2.69-3.46A3,3,0,0,0,100,28.42a2.52,2.52,0,0,0-.14,1v7H97.7Z"/><text class="cls-3" transform="translate(43.85 36.43)">P<tspan class="cls-4" x="19.15" y="0">r</tspan><tspan class="cls-5" x="26.88" y="0">abh</tspan></text><text class="cls-6" transform="translate(122.25 36.43)">G<tspan class="cls-5" x="23.26" y="0">ill</tspan></text><text class="cls-3" transform="translate(122.25 36.43)">G<tspan class="cls-5" x="23.26" y="0">ill</tspan></text></g><g id="Layer_3" data-name="Layer 3"><polygon class="cls-7" points="8.78 24.06 17.19 20.59 17.19 18.62 4.13 24.06 17.19 29.52 17.19 27.71 8.78 24.06"/><polygon class="cls-7" points="33.55 23.8 25.26 27.55 25.33 29.52 38.2 23.65 24.97 18.62 25.03 20.43 33.55 23.8"/><path class="cls-7" d="M21.94,18.62h1.38s.48-.23.13.68-3,10-3,10a.37.37,0,0,1-.32.23c-.25,0-1.34,0-1.34,0s-.31.25,0-.73S21.94,18.62,21.94,18.62Z"/></g></svg>